<svg xmlns="http://www.w3.org/2000/svg" viewBox="0 0 461.03 88.39"><title>Asset 7</title><g id="Layer_2" data-name="Layer 2"><g id="Layer_1-2" data-name="Layer 1"><path d="M211.9,24.61a22.26,22.26,0,0,1,7.85,13.16h-12.4a11.41,11.41,0,0,0-4.22-5.28,11.74,11.74,0,0,0-6.74-1.92,10.28,10.28,0,0,0-8.29,3.77Q185,38.11,185,44.41t3.15,10a10.31,10.31,0,0,0,8.29,3.73,11.74,11.74,0,0,0,6.74-1.92,11.4,11.4,0,0,0,4.22-5.2h12.4a22.37,22.37,0,0,1-7.85,13.12q-6.06,4.89-15.31,4.9A24.15,24.15,0,0,1,184.19,66a21.15,21.15,0,0,1-8.25-8.74A27.29,27.29,0,0,1,173,44.41a27.35,27.35,0,0,1,2.91-12.81,21.18,21.18,0,0,1,8.25-8.73,24.15,24.15,0,0,1,12.4-3.12Q205.84,19.75,211.9,24.61Z"/><path d="M254.38,32.32a17.33,17.33,0,0,1,7.05,6.82A20.4,20.4,0,0,1,264,49.55,20.37,20.37,0,0,1,261.43,60a17.27,17.27,0,0,1-7.05,6.82,23.18,23.18,0,0,1-20.38,0A17.19,17.19,0,0,1,226.91,60a20.37,20.37,0,0,1-2.57-10.41,20.4,20.4,0,0,1,2.57-10.41A17.25,17.25,0,0,1,234,32.32a23.18,23.18,0,0,1,20.38,0ZM238.55,42.53q-2.3,2.43-2.29,7t2.29,7a7.52,7.52,0,0,0,5.65,2.4,7.41,7.41,0,0,0,5.62-2.4q2.27-2.4,2.26-7t-2.26-7a7.37,7.37,0,0,0-5.62-2.43A7.48,7.48,0,0,0,238.55,42.53Z"/><path d="M292.16,31.94a11.56,11.56,0,0,1,4.59,5.42V18h11.71V68.66H296.75V61.75a11.59,11.59,0,0,1-4.59,5.41,13.87,13.87,0,0,1-7.54,2,15.45,15.45,0,0,1-8.46-2.36A16.14,16.14,0,0,1,270.27,60a23.58,23.58,0,0,1-2.16-10.41,23.57,23.57,0,0,1,2.16-10.45,16.26,16.26,0,0,1,5.89-6.78A15.53,15.53,0,0,1,284.62,30,13.87,13.87,0,0,1,292.16,31.94ZM282.33,42.7a9.67,9.67,0,0,0-2.3,6.85,9.67,9.67,0,0,0,2.3,6.85,8.58,8.58,0,0,0,12.12-.07,9.53,9.53,0,0,0,2.37-6.78,9.51,9.51,0,0,0-2.37-6.82,8.63,8.63,0,0,0-12.12,0Z"/><path d="M352.52,51.67H326q.21,4.32,2.19,6.2a7.08,7.08,0,0,0,5.07,1.89,6.91,6.91,0,0,0,4.32-1.3,6.07,6.07,0,0,0,2.26-3.36h12.4A16.19,16.19,0,0,1,349,62.33a17.51,17.51,0,0,1-6.44,5,22,22,0,0,1-18.67-.55A16.81,16.81,0,0,1,317,60a21.06,21.06,0,0,1-2.47-10.41A21.37,21.37,0,0,1,317,39.1a16.74,16.74,0,0,1,6.82-6.78,22.52,22.52,0,0,1,20,0,16.41,16.41,0,0,1,6.67,6.54,19.43,19.43,0,0,1,2.37,9.69A16.78,16.78,0,0,1,352.52,51.67ZM339,41.09a7.44,7.44,0,0,0-5.18-1.88,7.7,7.7,0,0,0-5.34,1.91,8,8,0,0,0-2.4,5.62H341Q341.07,43,339,41.09Z"/><path d="M370.67,20.23V68.66H359V20.23Z"/><path d="M413.45,34.41q3.87,4.38,3.87,12.06V68.66H405.61V47.84a8.47,8.47,0,0,0-2-6,7.06,7.06,0,0,0-5.38-2.15A7.29,7.29,0,0,0,392.56,42c-1.4,1.5-2.09,3.65-2.09,6.44V68.66H378.75V30.44h11.72v7A12.56,12.56,0,0,1,395.36,32,14.42,14.42,0,0,1,403,30,13.24,13.24,0,0,1,413.45,34.41Z"/><path d="M454.73,34A18.13,18.13,0,0,1,461,45.24h-12.4a6.55,6.55,0,0,0-2.26-3.84A6.71,6.71,0,0,0,442.05,40,6.28,6.28,0,0,0,437,42.46c-1.32,1.62-2,4-2,7.09s.66,5.47,2,7.09a6.28,6.28,0,0,0,5.07,2.43,6.65,6.65,0,0,0,4.32-1.37,6.56,6.56,0,0,0,2.26-3.83H461a18.1,18.1,0,0,1-6.3,11.2,19,19,0,0,1-12.4,4.07,20.49,20.49,0,0,1-10-2.36A16.9,16.9,0,0,1,425.54,60a21.17,21.17,0,0,1-2.46-10.41,21.37,21.37,0,0,1,2.43-10.45,16.72,16.72,0,0,1,6.81-6.78,20.84,20.84,0,0,1,10-2.36A19,19,0,0,1,454.73,34Z"/><path d="M28.14,72.23.85,42.8a3.17,3.17,0,0,1,0-4.31L28.14,8.77a3.19,3.19,0,0,1,2.34-1H53.56a3.18,3.18,0,0,1,2.34,5.33L32.55,38.49a3.18,3.18,0,0,0,0,4.31L55.85,67.91a3.18,3.18,0,0,1-2.33,5.34H30.47A3.18,3.18,0,0,1,28.14,72.23Z"/><path d="M97.34,4.56,78.74,85.5a3.73,3.73,0,0,1-3.63,2.89H66.42a3.72,3.72,0,0,1-3.62-4.56L81.47,2.89A3.72,3.72,0,0,1,85.1,0h8.61A3.73,3.73,0,0,1,97.34,4.56Z"/><path d="M106,7.75h23.08a3.19,3.19,0,0,1,2.34,1l27.31,29.72a3.18,3.18,0,0,1,0,4.31l-27.3,29.43a3.16,3.16,0,0,1-2.33,1h-23a3.18,3.18,0,0,1-2.33-5.34L127,42.8a3.17,3.17,0,0,0,0-4.31L103.69,13.08A3.18,3.18,0,0,1,106,7.75Z"/></g></g></svg>